<?xml version="1.0" encoding="UTF-8"?>
<!-- Generator: Adobe Illustrator 14.0.0, SVG Export Plug-In . SVG Version: 6.00 Build 43363)  -->
<!DOCTYPE svg PUBLIC "-//W3C//DTD SVG 1.1//EN" "http://www.w3.org/Graphics/SVG/1.1/DTD/svg11.dtd">
<svg version="1.1" id="Layer_1" xmlns="http://www.w3.org/2000/svg" xmlns:xlink="http://www.w3.org/1999/xlink" x="0px" y="0px" width="749px" height="242px" viewBox="0 0 749 242" enable-background="new 0 0 749 242" xml:space="preserve">
<rect x="8.669" y="8.845" width="224.808" height="98.783"/>
<rect x="8.375" y="114.292" width="41.94" height="42.728"/>
<polygon points="8.474,234.244 234.263,234.244 162.918,164.075 8.474,164.075 "/>
<polygon points="332.653,78.622 262.487,9.238 262.487,234.244 332.653,234.244 "/>
<rect x="340.102" y="64.9" width="97.999" height="99.175"/>
<rect x="516.106" y="9.041" width="84.279" height="225.201"/>
<polygon points="446.332,50.005 487.1,8.845 487.1,234.24 445.94,234.24 "/>
<rect x="608.615" y="65.293" width="132.886" height="42.728"/>
<rect x="699.56" y="114.684" width="41.94" height="42.335"/>
<polygon points="608.226,234.146 741.5,234.146 741.5,164.075 677.609,164.075 "/>
</svg>
